<svg xmlns="http://www.w3.org/2000/svg" width="48" height="48" viewBox="0 0 48 48">
  <linearGradient id="linearGradient-1" x1="49.941%" x2="49.941%" y1=".144%" y2="100.032%">
    <stop offset="0%" stop-color="#81B4E0"/>
    <stop offset="100%" stop-color="#0C5A94"/>
  </linearGradient>
  <linearGradient id="linearGradient-2" x1="50%" x2="50%" y1=".137%" y2="71.693%">
    <stop offset="0%" stop-color="#F06B59"/>
    <stop offset="100%" stop-color="#DF2227"/>
  </linearGradient>
  <linearGradient id="linearGradient-3" x1="26.35%" x2="49.137%" y1="81.958%" y2="38.282%">
    <stop offset="0%" stop-color="#388B41"/>
    <stop offset="100%" stop-color="#4CB749"/>
  </linearGradient>
  <linearGradient id="linearGradient-4" x1="58.397%" x2="51.594%" y1="85.352%" y2="63.408%">
    <stop offset="0%" stop-color="#E4B022"/>
    <stop offset="100%" stop-color="#FCD209"/>
  </linearGradient>
  <circle cx="24.044" cy="24.086" r="23.619" fill="#FFFFFF" fill-rule="nonzero"/>
  <circle cx="24.044" cy="24.086" r="8.803" fill="url(#linearGradient-1)" fill-rule="nonzero"/>
  <path fill="url(#linearGradient-2)" fill-rule="nonzero" d="M45.5150671,13.3499165 C39.603727,1.45677948 25.1704752,-3.39263307 13.2770563,2.51842515 C9.56861775,4.36138963 6.39903343,7.13091707 4.07537557,10.5586931 L13.737563,27.3065974 C11.9583836,21.6508753 15.1007646,15.6231403 20.7564867,13.843679 C21.7512653,13.5308789 22.7862787,13.3645476 23.8289744,13.3499165"/>
  <path fill="url(#linearGradient-3)" fill-rule="nonzero" d="M4.07537557,10.5589749 C-3.31978833,21.5911278 -0.371868573,36.5288516 10.6597206,43.9245791 C14.0728936,46.2127126 18.0154455,47.5880891 22.1112334,47.9194895 L32.2032084,30.7426431 C28.4295329,35.316428 21.6636907,35.9646321 17.0901876,32.1915203 C15.5367279,30.9101222 14.3749577,29.2176644 13.737563,27.3074429"/>
  <path fill="url(#linearGradient-4)" fill-rule="nonzero" d="M22.1112334,47.9192077 C35.3546079,48.9202603 46.9022239,38.9959729 47.9038403,25.7525984 C48.2269923,21.4794326 47.4021799,17.1975501 45.5147852,13.3501984 L23.8289744,13.3501984 C29.7575059,13.3775357 34.5423799,18.206093 34.5150426,24.13547 C34.5038946,26.5342408 33.6898155,28.8601953 32.2026447,30.7423613"/>
</svg>
