<svg xmlns="http://www.w3.org/2000/svg" width="48" height="48"><path d="M19 39v-1h-.538c-.255 0-.462-.224-.462-.5s.207-.5.462-.5H19v-2h10v2h.538c.255 0 .462.224.462.5s-.207.5-.462.5H29v1h.538c.255 0 .462.224.462.5s-.207.5-.462.5H29s-1.429 3-5 3c-3.571 0-5-3-5-3h-.538c-.255 0-.462-.224-.462-.5s.207-.5.462-.5H19zm1 0h8v-1h-8v1zm.17 1c.186.262.41.524.673.769C21.672 41.542 22.707 42 24 42s2.328-.458 3.157-1.231c.263-.245.487-.507.672-.769h-7.658zM20 37h8v-1h-8v1zM16.136 7.82a.5.5 0 0 1 .899-.44l1.56 3.2a.5.5 0 0 1-.898.44l-1.561-3.2zm14.049-.44a.5.5 0 0 1 .899.44l-1.561 3.2a.5.5 0 1 1-.9-.44l1.562-3.2zM23.11 6a.5.5 0 1 1 1 0v3.2a.5.5 0 1 1-1 0V6zm-12.346 5.95a.5.5 0 0 1 .716-.7l2.341 2.4a.5.5 0 1 1-.715.7l-2.342-2.4zm-2.888 5.734a.5.5 0 1 1 .248-.968l3.122.8a.5.5 0 1 1-.248.968l-3.122-.8zm31.87 0l-3.122.8a.5.5 0 0 1-.248-.968l3.122-.8a.5.5 0 0 1 .248.968zm-4.006-6.433a.5.5 0 1 1 .715.698l-2.341 2.4a.5.5 0 1 1-.716-.698l2.342-2.4zM18.8 34c0-5.5-4.8-5.5-4.8-12.571C14 16.397 18.477 12 24 12s10 4.397 10 9.429C34 28.5 29.2 28.5 29.2 34H18.8zm9.445-1c.167-1.75.813-3.018 2.113-4.72l.447-.583C32.393 25.617 33 24.16 33 21.429 33 16.899 28.917 13 24 13s-9 3.9-9 8.429c0 2.731.607 4.188 2.195 6.268l.447.583c1.3 1.702 1.946 2.97 2.113 4.72h8.49zm-6.876-17.067a.5.5 0 0 1 .355.934c-1.807.686-3.238 2.17-3.886 4.035a.5.5 0 0 1-.944-.329c.744-2.142 2.39-3.85 4.475-4.64z"/></svg>