<svg xmlns="http://www.w3.org/2000/svg" width="120" height="42" viewBox="0 0 120 42">
  <polygon fill="#FF46FB" points="18 25 27 25 27 34 18 34"/>
  <polygon fill="#CA41FC" points="9 25 18 25 18 34 9 34"/>
  <polygon fill="#8B48FE" points="0 25 9 25 9 34 0 34"/>
  <polygon fill="#81E650" points="27 16 27 25 18 25 18 16"/>
  <polygon fill="#00D267" points="18 16 18 25 9 25 9 16"/>
  <polygon fill="#00C0FF" points="9 16 9 25 0 25 0 16"/>
  <polygon fill="#FFD200" points="18 7 27 7 27 16 18 16"/>
  <polygon fill="#FF8E00" points="9 7 18 7 18 16 9 16"/>
  <polygon fill="#FF5400" points="0 7 9 7 9 16 0 16"/>
  <path fill="#212121" d="M119,13.162345 C118.878082,13.1354566 118.735845,13.1083991 118.573289,13.0811725 C118.42394,13.0542841 118.251223,13.033991 118.055139,13.0202931 C117.858547,13.0069335 117.645191,13 117.415072,13 C116.683567,13 116.066867,13.1014656 115.565989,13.3043968 C115.064603,13.5073281 114.654656,13.7882187 114.336654,14.1465614 C114.018145,14.5052424 113.788025,14.9212514 113.645788,15.3945885 C113.503551,15.8682638 113.432432,16.3755919 113.432432,16.9165727 L113.432432,17.4441939 L112.091339,17.4441939 L112.091339,20.0011274 L113.432432,20.0011274 L113.432432,27.4284104 L116.927402,27.4284104 L116.927402,20.0011274 L118.634247,20.0011274 L118.634247,17.4441939 L116.927402,17.4441939 L116.927402,17.1397971 C116.927402,16.7070462 117.045763,16.3990981 117.282995,16.21646 C117.519718,16.0338219 117.801144,15.9425028 118.126258,15.9425028 C118.261383,15.9425028 118.380253,15.9494363 118.48185,15.9627959 C118.583448,15.9764938 118.674887,15.9900225 118.756165,16.0033822 C118.837443,16.01708 118.918722,16.0306088 119,16.0439684 L119,13.162345 L119,13.162345 Z M103.770637,21.1882751 C103.899327,20.8838782 104.055111,20.6371477 104.237987,20.4475761 C104.420863,20.2583427 104.620673,20.1228861 104.837415,20.0417136 C105.053988,19.9605411 105.257184,19.9199549 105.447003,19.9199549 C105.677291,19.9199549 105.951606,19.9605411 106.269946,20.0417136 C106.588117,20.1228861 106.849054,20.2583427 107.05225,20.4475761 L107.05225,24.059752 C106.862432,24.3438557 106.628756,24.5366404 106.351225,24.638106 C106.073523,24.7395716 105.799209,24.7903044 105.528281,24.7903044 C105.284446,24.7903044 105.047384,24.7465051 104.817095,24.6583991 C104.586637,24.5706313 104.380224,24.4319617 104.197348,24.2423901 C104.014472,24.0531567 103.865292,23.7994927 103.750317,23.481398 C103.635173,23.1636415 103.5776,22.77469 103.5776,22.3145434 C103.5776,21.8680947 103.641777,21.4926719 103.770637,21.1882751 L103.770637,21.1882751 Z M100.367105,24.6685457 C100.61094,25.3316234 100.939271,25.886133 101.352605,26.3325817 C101.76577,26.7790304 102.249885,27.113867 102.805456,27.3370913 C103.360858,27.5603157 103.95673,27.6719278 104.59358,27.6719278 C105.040611,27.6719278 105.521339,27.5669109 106.036271,27.3573844 C106.551034,27.1478579 106.984349,26.8671364 107.336725,26.5152198 L107.336725,27.4284104 L110.506581,27.4284104 L110.506581,13.3043968 L107.011611,13.3043968 L107.011611,17.9109357 C106.699875,17.5999436 106.361384,17.3767193 105.995632,17.2412627 C105.629879,17.1061443 105.162528,17.0383315 104.59358,17.0383315 C104.078648,17.0383315 103.550338,17.1499436 103.008652,17.373168 C102.466796,17.5963923 101.972353,17.9312289 101.525322,18.3776776 C101.078291,18.8241263 100.712538,19.3789741 100.428064,20.0417136 C100.14359,20.7047914 100.001353,21.4759301 100.001353,22.3551297 C100.001353,23.2346674 100.12327,24.0058061 100.367105,24.6685457 L100.367105,24.6685457 Z M92.1380099,20.6505073 C92.3681293,20.3801015 92.6256801,20.190699 92.9101544,20.0822999 C93.1946286,19.974239 93.4721603,19.9199549 93.7432575,19.9199549 C93.9870926,19.9199549 94.2207679,19.9605411 94.4442834,20.0417136 C94.6677989,20.1228861 94.8640523,20.2547914 95.0335515,20.4374295 C95.2027121,20.6200676 95.3415626,20.860372 95.4501031,21.1578354 C95.5583049,21.455637 95.6126598,21.8141488 95.6126598,22.2333709 C95.6126598,22.7204059 95.5481451,23.1262683 95.4196237,23.4509583 C95.2907637,23.7756483 95.1315935,24.0394589 94.9421134,24.2423901 C94.7522945,24.4453213 94.5423254,24.5873732 94.3122061,24.6685457 C94.081748,24.7497182 93.8651751,24.7903044 93.6619792,24.7903044 C93.4315212,24.7903044 93.1707531,24.7497182 92.879675,24.6685457 C92.5882582,24.5873732 92.3412058,24.4522548 92.1380099,24.2626832 L92.1380099,20.6505073 L92.1380099,20.6505073 Z M92.1786491,26.7993236 C92.5171396,27.1377114 92.8862788,27.367531 93.2860668,27.4892897 C93.685516,27.6110485 94.0952944,27.6719278 94.515402,27.6719278 C95.0570884,27.6719278 95.6057173,27.5603157 96.1612888,27.3370913 C96.7165216,27.113867 97.2179074,26.7758174 97.6649384,26.3224352 C98.1119694,25.8693912 98.477722,25.2976325 98.7621963,24.6076663 C99.0466706,23.9177001 99.1889077,23.1129087 99.1889077,22.1927847 C99.1889077,21.3541714 99.073594,20.6134724 98.8434746,19.9706877 C98.6130166,19.3282413 98.298063,18.7904735 97.8986137,18.3573844 C97.4988258,17.9246336 97.0314752,17.5963923 96.496562,17.373168 C95.9613101,17.1499436 95.3957482,17.0383315 94.7998762,17.0383315 C94.2849439,17.0383315 93.7600212,17.1433484 93.225108,17.3528749 C92.6898561,17.5627396 92.2326654,17.8434611 91.8535357,18.1950395 L91.8535357,17.2818489 L88.6836796,17.2818489 L88.6836796,31 L92.1786491,31 L92.1786491,26.7993236 L92.1786491,26.7993236 Z M82.831807,27.4284104 L86.3267765,27.4284104 L86.3267765,13.3043968 L82.831807,13.3043968 L82.831807,27.4284104 Z M76.9797651,27.4284104 L80.4747346,27.4284104 L80.4747346,13.3043968 L76.9797651,13.3043968 L76.9797651,27.4284104 Z M64.5140352,24.6685457 C64.7509278,25.3316234 65.0760412,25.886133 65.4893756,26.3325817 C65.9023712,26.7790304 66.3834375,27.113867 66.9320664,27.3370913 C67.4806954,27.5603157 68.0731808,27.6719278 68.7100306,27.6719278 C69.1570616,27.6719278 69.6377892,27.5704622 70.1527215,27.367531 C70.6673151,27.1645998 71.1007997,26.8874295 71.4531752,26.535513 L71.4531752,27.4284104 L74.6230313,27.4284104 L74.6230313,17.2818489 L71.4938144,17.2818489 L71.4938144,18.2559188 C71.1007997,17.8094701 70.6740883,17.4949267 70.2136802,17.3122886 C69.7529335,17.1296505 69.2789791,17.0383315 68.7913089,17.0383315 C68.2763767,17.0383315 67.7448501,17.1499436 67.1962211,17.373168 C66.6475922,17.5963923 66.1497622,17.9312289 65.7027313,18.3776776 C65.2557003,18.8241263 64.8863917,19.3789741 64.5953136,20.0417136 C64.3038968,20.7047914 64.1584424,21.4759301 64.1584424,22.3551297 C64.1584424,23.2346674 64.276804,24.0058061 64.5140352,24.6685457 L64.5140352,24.6685457 Z M67.9175666,21.1882751 C68.0394841,20.8838782 68.191881,20.6371477 68.3747573,20.4475761 C68.5576337,20.2583427 68.753887,20.1228861 68.9640255,20.0417136 C69.1738252,19.9605411 69.3736345,19.9199549 69.5634534,19.9199549 C69.7935727,19.9199549 70.0678872,19.9573281 70.3863968,20.0315671 C70.7045677,20.1061443 70.9655051,20.2515784 71.168701,20.4678692 L71.168701,24.059752 C70.9788821,24.3438557 70.7452069,24.5366404 70.4676751,24.638106 C70.1898047,24.7395716 69.9154903,24.7903044 69.6447317,24.7903044 C69.4008966,24.7903044 69.1672214,24.7465051 68.9437059,24.6583991 C68.7201904,24.5706313 68.5169945,24.4319617 68.3341182,24.2423901 C68.1512419,24.0531567 68.0054488,23.7994927 67.897247,23.481398 C67.7887065,23.1636415 67.7346903,22.77469 67.7346903,22.3145434 C67.7346903,21.8680947 67.795649,21.4926719 67.9175666,21.1882751 L67.9175666,21.1882751 Z M47.3338218,27.4284104 L50.8287913,27.4284104 L50.8287913,20.7722661 C50.9778017,20.515389 51.1708378,20.3226043 51.4078996,20.1939121 C51.6447922,20.0655581 51.8718636,20.0011274 52.0886059,20.0011274 C52.4677356,20.0011274 52.7591524,20.102593 52.9623483,20.3055242 C53.1655442,20.5084555 53.2671421,20.934611 53.2671421,21.583991 L53.2671421,27.4284104 L56.7621116,27.4284104 L56.7621116,20.7722661 C56.911122,20.515389 57.1041581,20.3226043 57.3412199,20.1939121 C57.5781125,20.0655581 57.8051839,20.0011274 58.0219262,20.0011274 C58.4010559,20.0011274 58.6924727,20.102593 58.8956686,20.3055242 C59.0988645,20.5084555 59.2004624,20.934611 59.2004624,21.583991 L59.2004624,27.4284104 L62.6954319,27.4284104 L62.6954319,21.0157835 C62.6954319,19.7442503 62.4243347,18.7632469 61.8826483,18.0732807 C61.3407926,17.3833145 60.5142933,17.0383315 59.4036583,17.0383315 C58.7127923,17.0383315 58.1099778,17.2006764 57.5952148,17.5253664 C57.0802825,17.8500564 56.6672869,18.2290304 56.3557198,18.6617813 C55.7867713,17.5796505 54.824808,17.0383315 53.470338,17.0383315 C52.779472,17.0383315 52.1902039,17.1873168 51.7025337,17.4847802 C51.2148635,17.7825817 50.8152449,18.1275648 50.5036779,18.5197294 L50.4223995,18.5197294 L50.300482,17.2818489 L47.3338218,17.2818489 L47.3338218,27.4284104 L47.3338218,27.4284104 Z M35,26.0281849 C35.3520369,26.3395152 35.7787483,26.6166855 36.2801342,26.8602029 C36.7134494,27.0631342 37.2519186,27.2493236 37.8955416,27.4182638 C38.5388259,27.5872041 39.3008106,27.6719278 40.1814955,27.6719278 C41.1295737,27.6719278 41.9594596,27.5533822 42.6706452,27.3167982 C43.3818309,27.0802142 43.971099,26.7587373 44.4384496,26.3528749 C44.9058002,25.9470124 45.2544505,25.4736753 45.4849085,24.9323563 C45.7150278,24.3913754 45.8303415,23.8162345 45.8303415,23.2074408 C45.8303415,22.0710259 45.5084453,21.1816798 44.865161,20.5388952 C44.221538,19.8964487 43.344409,19.4126268 42.2337741,19.0879369 C41.6241864,18.9122322 41.1060368,18.7632469 40.6793254,18.6414882 C40.252614,18.5197294 39.907181,18.401522 39.6430263,18.2863585 C39.3788717,18.1715333 39.1890528,18.0497745 39.0740778,17.9210823 C38.9587641,17.7927283 38.9013613,17.6337655 38.9013613,17.4441939 C38.9013613,17.0926156 39.063918,16.8049605 39.3890315,16.5817362 C39.7141449,16.3585118 40.1611759,16.2468997 40.7301244,16.2468997 C41.1228005,16.2468997 41.5190325,16.3214769 41.9188204,16.470124 C42.3182697,16.6191094 42.6874089,16.7814543 43.0262381,16.957159 C43.4189142,17.173788 43.7983825,17.4105411 44.1641351,17.6674183 L45.708424,14.5422773 C45.261393,14.2581736 44.7737228,14.0012965 44.2454135,13.7711387 C43.7983825,13.5819053 43.2732904,13.4058625 42.6706452,13.2435175 C42.0676614,13.0811725 41.4209905,13 40.7301244,13 C39.8360624,13 39.0537582,13.12531 38.3832117,13.3754228 C37.7126653,13.6258737 37.1538765,13.9573281 36.7068456,14.3697858 C36.2598146,14.7825817 35.9245413,15.2560879 35.7010259,15.7903044 C35.4775104,16.3248591 35.3657526,16.8759865 35.3657526,17.4441939 C35.3657526,18.5131342 35.646671,19.3821871 36.2090156,20.0518602 C36.7710216,20.7215333 37.5668722,21.2121195 38.5965674,21.5231116 C39.2874335,21.7260428 39.8665418,21.8919391 40.3338924,22.0202931 C40.801243,22.1489853 41.1771554,22.2739572 41.4616296,22.3957159 C41.7461039,22.5174746 41.9492998,22.6427847 42.0712173,22.7711387 C42.1931349,22.8998309 42.2540937,23.065389 42.2540937,23.2683202 C42.2540937,23.606708 42.0575016,23.8840474 41.6648255,24.1003382 C41.2718108,24.3169673 40.7435015,24.4250282 40.0798975,24.4250282 C39.6462436,24.4250282 39.229692,24.3438557 38.8302427,24.1815107 C38.4304548,24.0191657 38.074862,23.8365276 37.7634642,23.6335964 C37.3977116,23.4037768 37.0453361,23.1399662 36.7068456,22.8421646 L35,26.0281849 L35,26.0281849 Z"/>
</svg>
