<svg xmlns="http://www.w3.org/2000/svg" width="48" height="48"><path d="M25 32v8h-1v-8H13.826C9.504 32 6 28.395 6 23.948c0-2.367.993-4.496 2.573-5.969a8.292 8.292 0 0 1-.225-1.927C8.348 11.605 11.852 8 16.174 8c2.56 0 4.833 1.265 6.26 3.22a7.65 7.65 0 0 1 4.696-1.61c2.85 0 5.345 1.568 6.713 3.91 4.575.439 8.157 4.4 8.157 9.22 0 5.114-4.03 9.26-9 9.26h-8zm0-1h8c4.412 0 8-3.692 8-8.26 0-4.28-3.165-7.833-7.252-8.224l-.51-.049-.258-.442c-1.23-2.105-3.431-3.415-5.85-3.415a6.648 6.648 0 0 0-4.084 1.401l-.813.629-.606-.83C20.343 10.05 18.343 9 16.174 9c-3.764 0-6.826 3.151-6.826 7.052 0 .578.067 1.145.198 1.695l.135.566-.426.398A7.135 7.135 0 0 0 7 23.948C7 27.85 10.063 31 13.826 31H24V20l-4.75 4.75-.75-.75 6-6 6 6-.75.75L25 20v11z"/></svg>