<svg xmlns="http://www.w3.org/2000/svg" width="48" height="48"><path d="M32.623 33.364l-1.764-1.018.504-.874 1.764 1.018 1.019-1.764.873.505-1.018 1.764 1.764 1.018-.504.874-1.764-1.018-1.019 1.764-.874-.505 1.019-1.764zM9.099 25.486c-1.314-1.774-1.514-4.264-.317-6.338a5.845 5.845 0 0 1 3.388-2.691l8.464-7.68L24.805 8l-1.203 4.099-6.012 5.455 11.25 6.493-.02-5.17c0-3.136.884-5.725 2.362-7.792a11.075 11.075 0 0 1 1.635-1.834 6.49 6.49 0 0 1 .775-.608l.308-.196.289.222c.16.124.428.358.768.7.56.564 1.118 1.232 1.64 2.003 1.446 2.14 2.332 4.646 2.38 7.498l-.007 11.606c1.256 1.772 1.42 4.215.248 6.245-1.194 2.069-3.455 3.15-5.657 2.893a6.332 6.332 0 0 1-4.986-.387c-.014-.006-5.443-3.139-16.287-9.398l-.151-.088a6.312 6.312 0 0 1-3.038-4.255zm1.625 1.465a5.272 5.272 0 0 0 2.06 1.988l16.193 9.352a5.367 5.367 0 0 0 2.504.644L10.963 27.09l-.187-.108a5.62 5.62 0 0 1-.052-.03zm5.945-9.93l6.046-5.486.656-2.234-2.273.424-7.158 6.494a5.509 5.509 0 0 1 2.729.802zm13.195 7.617c2.26 1.306 4.813 2.779 7.657 4.42a.5.5 0 0 1 .115.092c.104.073.206.15.304.229.003-6.988.006-10.494.009-10.518a12.606 12.606 0 0 0-2.206-6.94 12.9 12.9 0 0 0-1.52-1.859 10.624 10.624 0 0 0-.377-.362 8.16 8.16 0 0 0-.34.287 10.075 10.075 0 0 0-1.486 1.668c-1.361 1.904-2.179 4.296-2.179 7.221l.023 5.762zm6.152-8.648c.004-.274.213-.492.466-.487.253.005.455.23.45.505l-.1 6.07c-.004.273-.213.492-.466.487-.253-.005-.455-.231-.45-.505l.1-6.07zm-19.961 1.85c-2.215-1.279-5.081-.47-6.4 1.814-1.318 2.283-.585 5.17 1.63 6.448.056.033.113.064.17.094.018.01 6.916 3.993 20.695 11.952 2.25 1.099 4.936.25 6.195-1.93 1.259-2.182.651-4.932-1.367-6.286-.014-.01-6.906-3.993-20.677-11.95-.135-.076-.19-.11-.246-.142z"/></svg>