<?xml version="1.0" encoding="utf-8"?>
<!-- Generator: Adobe Illustrator 22.0.1, SVG Export Plug-In . SVG Version: 6.00 Build 0)  -->
<svg version="1.1" id="Слой_1" xmlns="http://www.w3.org/2000/svg" xmlns:xlink="http://www.w3.org/1999/xlink" x="0px" y="0px"
	 viewBox="0 0 566.9 566.9" style="enable-background:new 0 0 566.9 566.9;" xml:space="preserve">
<style type="text/css">
	.st0{fill:#603813;stroke:#FF0000;stroke-width:2.5062;stroke-miterlimit:10;}
	.st1{fill:#39B54A;stroke:#FF0000;stroke-width:1.9914;stroke-miterlimit:10;}
	.st2{fill:#0000FF;stroke:#FF0000;stroke-width:1.5845;stroke-miterlimit:10;}
	.st3{fill:none;stroke:#000000;stroke-width:0.9997;stroke-miterlimit:10;}
	.st4{fill:none;stroke:#000000;stroke-width:1.0142;stroke-miterlimit:10;}
	.st5{fill:none;stroke:#000000;stroke-miterlimit:10;}
	.st6{fill:none;stroke:#000000;stroke-miterlimit:10;stroke-dasharray:10.1637;}
	.st7{fill:none;stroke:#000000;stroke-miterlimit:10;stroke-dasharray:10.0086,10.0086;}
	.st8{fill:none;stroke:#000000;stroke-width:1.1735;stroke-miterlimit:10;}
	.st9{fill:none;stroke:#000000;stroke-width:1.6969;stroke-miterlimit:10;}
	.st10{fill:none;stroke:#000000;stroke-width:1.173;stroke-miterlimit:10;stroke-dasharray:11.9274;}
	.st11{fill:#FF0000;stroke:#FF0000;stroke-width:0.7163;stroke-miterlimit:10;}
	.st12{fill:#FF0000;stroke:#FF0000;stroke-width:0.7006;stroke-miterlimit:10;}
	.st13{fill:#FF0000;stroke:#FF0000;stroke-width:0.6884;stroke-miterlimit:10;}
	.st14{fill:#FF0000;stroke:#FF0000;stroke-width:0.859;stroke-miterlimit:10;}
	.st15{fill:#FF0000;stroke:#FF0000;stroke-width:0.7997;stroke-miterlimit:10;}
	.st16{fill:#FF0000;stroke:#FF0000;stroke-width:1.0145;stroke-miterlimit:10;}
	.st17{fill:#FFFF00;stroke:#FFFF00;stroke-width:1.4405;stroke-miterlimit:10;}
	.st18{fill:#C1272D;stroke:#FF0000;stroke-width:1.296;stroke-miterlimit:10;}
	.st19{fill:#FBB03B;stroke:#FF0000;stroke-miterlimit:10;}
	.st20{fill:none;stroke:#D9E021;stroke-width:3;stroke-miterlimit:10;}
	.st21{fill:#D9E021;}
	.st22{fill:#FFFF00;}
	.st23{fill:none;stroke:#0000FF;stroke-width:3;stroke-miterlimit:10;}
	.st24{fill:#0000FF;}
	.st25{fill:none;stroke:#000000;stroke-width:3;stroke-miterlimit:10;}
	.st26{fill:#FFFFFF;}
	.st27{font-family:'MyriadPro-Regular';}
	.st28{font-size:12px;}
	.st29{font-size:12.6684px;}
</style>
<ellipse transform="matrix(0.9709 -0.2396 0.2396 0.9709 -48.7981 109.8256)" class="st0" cx="427.3" cy="255.6" rx="96.4" ry="129.8"/>
<ellipse class="st1" cx="426.5" cy="257.4" rx="70.8" ry="111.6"/>
<ellipse class="st2" cx="424.9" cy="253.4" rx="53.3" ry="93.9"/>
<path class="st3" d="M24.3,22.5c0,137.9,46.7,249.6,104.3,249.6"/>
<path class="st4" d="M236.1,22.6c0,137.9-48,249.6-107.4,249.6"/>
<path class="st5" d="M76.5,20c0,139.4,25.3,252.2,56.6,252.2"/>
<path class="st6" d="M182.7,19.9c0,139.4-23.3,252.2-52,252.2"/>
<path class="st5" d="M194.5,218.8c0,9.6-29.1,17.4-64.9,17.4s-64.9-7.8-64.9-17.4"/>
<path class="st5" d="M129.6,201.4"/>
<g>
	<g>
		<path class="st5" d="M64.4,219.4c0-1.5,0.7-3,2.2-4.5"/>
		<path class="st7" d="M75.1,209.8c11.6-4.7,31.6-7.8,54.2-7.8c25.9,0,48.3,4.1,58.7,10"/>
		<path class="st5" d="M192,214.9c1.4,1.4,2.2,2.9,2.2,4.5"/>
	</g>
</g>
<path class="st5" d="M129.3,236.8"/>
<path class="st8" d="M219.3,157.9c0,9.6-40,17.4-89.4,17.4s-89.4-7.8-89.4-17.4"/>
<path class="st9" d="M427.4,229.1"/>
<path class="st10" d="M40.2,158.5c0-9.6,40-17.4,89.4-17.4s89.4,7.8,89.4,17.4"/>
<path class="st5" d="M227.3,266.8"/>
<polygon class="st11" points="205.4,132.2 204.3,130.4 202.7,131.8 203.6,128.4 202.9,125.8 204.4,125.5 205.6,122.5 205.8,125.7 
	207.1,126.5 205.7,128.7 "/>
<polygon class="st12" points="172.3,243.6 171.1,241.9 169.5,243.2 170.2,240.1 169.5,237.8 171.1,237.6 172.3,234.9 172.5,237.8 
	174,238.5 172.5,240.5 "/>
<polygon class="st13" points="93.6,248.3 91.3,247.1 88.7,247.5 89.4,245.9 87.6,244.4 90.4,244.6 91.9,243.2 92.9,245 95.6,245.7 
	93.4,246.6 "/>
<polygon class="st14" points="128.4,193.1 126.2,191.5 123.6,192.3 124.5,189.7 122.8,187.5 125.6,187.5 127.2,185.3 128,187.9 
	130.6,188.8 128.4,190.4 "/>
<polygon class="st15" points="98.8,118.6 101.1,117.7 103,119.3 103.1,116.6 105.1,114.9 102.8,114.2 102.2,111.5 100.7,113.8 
	98.3,113.8 99.7,116 "/>
<polygon class="st16" points="60.8,191.8 58.7,189.7 56,191 57.1,187.4 55.5,184.4 58.3,184.3 60.1,181.1 60.8,184.7 63.4,185.7 
	61,188 "/>
<polygon class="st17" points="376.6,163.1 372.8,160.3 368.4,161.8 369.9,157.4 367.1,153.7 371.8,153.8 374.5,150.1 375.9,154.5 
	380.4,155.9 376.5,158.5 "/>
<ellipse class="st18" cx="425" cy="254.4" rx="43.6" ry="76.8"/>
<ellipse class="st19" cx="425" cy="252.3" rx="28.9" ry="50.9"/>
<ellipse transform="matrix(0.9709 -0.2396 0.2396 0.9709 -96.5721 54.7688)" class="st0" cx="177" cy="424.5" rx="96.4" ry="129.8"/>
<ellipse class="st1" cx="176.2" cy="426.4" rx="70.8" ry="111.6"/>
<ellipse class="st2" cx="174.6" cy="422.4" rx="53.3" ry="93.9"/>
<path class="st9" d="M177.1,398.1"/>
<ellipse class="st18" cx="174.6" cy="423.3" rx="43.6" ry="76.8"/>
<ellipse class="st19" cx="174.7" cy="421.3" rx="28.9" ry="50.9"/>
<polygon class="st17" points="366.7,278.9 363,276.2 358.5,277.6 360,273.3 357.2,269.5 361.9,269.7 364.7,265.9 366,270.3 
	370.5,271.7 366.7,274.4 "/>
<polygon class="st17" points="445.6,329.3 441.8,326.5 437.4,327.9 438.9,323.6 436.1,319.9 440.8,320 443.5,316.3 444.9,320.6 
	449.4,322.1 445.6,324.7 "/>
<polygon class="st17" points="502.7,257.2 499,254.4 494.5,255.8 496.1,251.5 493.3,247.8 498,247.9 500.7,244.2 502.1,248.6 
	506.5,250 502.7,252.6 "/>
<polygon class="st17" points="384.7,245.4 380.9,242.6 376.5,244 378,239.7 375.2,236 379.9,236.1 382.6,232.4 384,236.8 
	388.5,238.2 384.6,240.8 "/>
<polygon class="st17" points="429.4,229.3 425.7,226.5 421.2,227.9 422.8,223.6 420,219.9 424.7,220 427.4,216.3 428.8,220.6 
	433.2,222.1 429.4,224.7 "/>
<polygon class="st17" points="161.1,383.9 157.4,381.1 152.9,382.5 154.4,378.2 151.7,374.5 156.3,374.6 159.1,370.9 160.4,375.3 
	164.9,376.7 161.1,379.3 "/>
<polygon class="st17" points="199,411.2 195.3,408.5 190.8,409.9 192.3,405.5 189.5,401.8 194.2,402 197,398.2 198.3,402.6 
	202.8,404 199,406.7 "/>
<polygon class="st17" points="149.9,436.1 146.2,433.3 141.7,434.7 143.3,430.4 140.5,426.7 145.2,426.8 147.9,423.1 149.3,427.5 
	153.7,428.9 149.9,431.5 "/>
<polygon class="st17" points="172.6,425.6 168.9,422.8 164.4,424.2 166,419.9 163.2,416.2 167.9,416.3 170.6,412.6 172,417 
	176.4,418.4 172.6,421 "/>
<polygon class="st17" points="189.1,485.2 185.3,482.4 180.9,483.8 182.4,479.5 179.6,475.8 184.3,475.9 187,472.2 188.4,476.5 
	192.9,478 189,480.6 "/>
<polygon class="st17" points="151.2,405.6 147.4,402.9 143,404.3 144.5,400 141.7,396.3 146.4,396.4 149.1,392.7 150.5,397 
	155,398.5 151.1,401.1 "/>
<g>
	<g>
		<line class="st20" x1="379.7" y1="159.2" x2="407.5" y2="166.3"/>
		<g>
			<polygon class="st21" points="387.9,171.1 387.6,168.2 407.2,166.3 391,155.1 392.7,152.7 415.7,168.5 			"/>
		</g>
	</g>
</g>
<g>
	<g>
		<line class="st20" x1="447.9" y1="318.7" x2="476.3" y2="314.3"/>
		<g>
			<polygon class="st21" points="460.2,326.5 458.8,323.8 476,314.4 456.7,310.5 457.3,307.6 484.7,313 			"/>
		</g>
	</g>
</g>
<g>
	<g>
		<line class="st20" x1="380.6" y1="245.3" x2="385.3" y2="273.7"/>
		<g>
			<polygon class="st21" points="373,257.7 375.6,256.3 385.3,273.4 388.9,254.1 391.8,254.6 386.7,282.1 			"/>
		</g>
	</g>
</g>
<g>
	<line class="st22" x1="431.9" y1="226.5" x2="454.2" y2="249.2"/>
	<g>
		<line class="st23" x1="431.9" y1="226.5" x2="448.2" y2="243.2"/>
		<g>
			<polygon class="st24" points="429,237.2 430.3,234.5 448,243 439.9,225.1 442.6,223.8 454.2,249.2 			"/>
		</g>
	</g>
</g>
<g>
	<g>
		<line class="st20" x1="365.6" y1="263.6" x2="367.6" y2="235"/>
		<g>
			<polygon class="st21" points="375.9,253.3 373,254.1 367.6,235.3 359.6,253.2 356.9,252 368.2,226.5 			"/>
		</g>
	</g>
</g>
<g>
	<g>
		<line class="st20" x1="492.2" y1="251.8" x2="464.6" y2="259.6"/>
		<g>
			<polygon class="st21" points="479,245.6 480.8,248 464.9,259.6 484.5,261 484.3,264 456.5,262 			"/>
		</g>
	</g>
</g>
<g>
	<g>
		<line class="st20" x1="192.4" y1="474.5" x2="207.7" y2="450.2"/>
		<g>
			<polygon class="st21" points="206.3,470.2 203.4,469.6 207.5,450.4 192,462.4 190.2,460.1 212.2,443 			"/>
		</g>
	</g>
</g>
<g>
	<g>
		<line class="st23" x1="164.4" y1="380.2" x2="192.2" y2="387.3"/>
		<g>
			<polygon class="st24" points="172.7,392.1 172.4,389.2 191.9,387.3 175.7,376.1 177.4,373.7 200.4,389.5 			"/>
		</g>
	</g>
</g>
<g>
	<g>
		<line class="st23" x1="146" y1="438.5" x2="154.8" y2="465.4"/>
		<g>
			<polygon class="st24" points="140.2,451.5 142.6,449.7 154.7,465.1 155.3,445.5 158.3,445.6 157.5,473.4 			"/>
		</g>
	</g>
</g>
<g>
	<g>
		<line class="st25" x1="230" y1="149.2" x2="282.2" y2="172.4"/>
		<g>
			<g>
				<path d="M310,186.7l-0.9-0.4c0.2,1.2-2.7,4-5.2,2.3c-0.5,2-2.5,2.4-4.1,1.2c-1.4-1.1-2.2-1.6-5.1-2.3c-3.6-0.9-7.8-1.5-10.7-5.5
					c-0.3-0.4-0.7-0.3-0.9-0.1c-0.4,0.3-0.8,1.7-1.9,1.2l-4-1.8c-1.4-0.6-1.6-3.2,1.3-9.8c3.1-6.9,4.4-9.5,7.2-8.3
					c2.8,1.2,3.6,1.6,3.6,1.6c0.9,0.4,0.8,1.1,0.7,1.5c0,0.3,0.3,0.5,0.5,0.5c0.4,0,4.6,0,7.8,1.1c3,1,4.4,0.6,6.2,1.7
					c2.1,1.3,9.5,4.4,11.7,5.3c2.1,0.9,5.3,3.1,9.9,5.1c4.4,1.8,2.2,6.9-1.6,4.9c-3-1.6-3.3-1.2-4.3-1.8c-1.8-1.1-3.9-1.8-5.4-2.3
					c-0.7-0.2-1.3-0.8-3.4-1.4c1,0.7,0.9,1,2.1,2.4C315.3,183.8,312.1,187.5,310,186.7z"/>
				<path class="st26" d="M284.5,173.2c-1.3,2.7-2.9,7.7-2.9,8.2c0,0.5-0.4,0.6-1,0.3c-0.4-0.2-2.6-1.2-2.6-1.2
					c-0.9-0.4-1.7-1.9,1.6-9.2c3.4-7.5,4.1-8.4,6.4-7.4l2.7,1.3c0.2,0.1,0.2,0.3,0.2,0.5C289,166.3,287.8,166.4,284.5,173.2z"/>
				<path class="st26" d="M290.6,176.9c-0.2,0.1-0.3,0.3-0.3,0.4c0,0.6,0.8,0.5,1.2,0.6c0.4,0.1,2.4,0.7,2.9,1.4
					c0.5,0.8,1.5,2.3,1.1,4.4c-0.1,0.4,0,1.7,0.8,2.4c0.6,0.5,0.2,1.1-0.4,0.9c-1.5-0.5-2.3-0.1-6.9-2.2c-3.6-1.8-6.7-4.1-4.8-9.1
					c1.1-2.7,2.9-6.4,3.9-7.6c1-1.2,2.1-0.7,3.3-0.8c4.9,0.1,7.6,1.4,10.1,1.9c1,0.2,1.8,0.2,2.6,1.5c1.7,2.8,4.3,4.7,4.8,5.5
					c0.4,0.5,0.4,0.8,0.4,1c0,0.3,0.5,0.6,0.8,1.2c0.2,0.3,0.3,0.5,0.5,0.8c-0.6,0.3-0.7-0.4-1.8,0.5c-0.2,0.2-0.3,0.7-0.3,1
					c0.1,0.6,1,1.1,1.4,1.4c0.3,0.2,0.6,0.4,1,0.6c0.9,0.6,1.6-0.2,1.5,0.1c-0.6,1.8-2.8,0.4-3.5,0c-0.7-0.4-1.2-1.1-1.9-1.6
					c-0.2-0.4-1.9-1.2-1.4-2.4c0.1-0.2,0.3-0.6-0.3-0.7c-0.5,0-2.4-0.9-2.5-1.6c0-0.3-0.1-0.5-0.3-0.8c-0.2-0.2-0.5-0.2-0.6,0.2
					c-0.1,0.4-0.4,1-1,0.8c-0.6-0.1-0.8-0.2-1.1-0.6c-0.3-0.4-0.8-1.1-1.1-1.3c-0.3,0-0.6,0.1-0.1,0.6c0.4,0.5,0.7,1.7-0.7,2.4
					c-2.1,0.9-1.7,1.2-6.8-0.8C291,176.8,290.8,176.8,290.6,176.9z"/>
				<path class="st26" d="M298.8,180.6c-0.3-1.1-0.7-1.6,0.3-2.2c0.1-0.1,0.4,0,0.9,0.4c0.3,0.2,0.8,2-0.6,2.5
					C299.2,181.3,298.9,181.3,298.8,180.6z"/>
				<path class="st26" d="M296.6,182.8c-0.5,0-0.3-2.2-0.2-2.3c0.1-0.2,0.2-0.3,1.1,0c0.4,0.2,0.7,1.2,0.3,1.9
					C297.5,182.9,296.7,182.8,296.6,182.8z"/>
				<path class="st26" d="M302,179.5c-0.2-0.5-0.7-1.6-0.3-1.9c0.5-0.3,0.9-0.4,1.6,0.2c0.5,0.4,1.1,1.8-0.5,2.4
					C302.4,180.2,302.3,180.3,302,179.5z"/>
				<path class="st26" d="M303.1,188.3c-0.5,2.7-3.1,1.3-3.8,0.2c-1.3-1.8-2.6-2.7-2.9-3.6c-0.2-0.5-0.2-1.7,0.3-1.6
					c0.4,0.1,1,0,1.3-0.2c0.1,0,0.3-0.8,0.4-0.7c0.1,0.1-0.4,0.7,0.9,2.2c0.6,0.6,1.8,1.9,2.3,2.3c0.4,0.3,0.7,0.7,1.4,1.1
					C303.2,188.1,303.2,188.2,303.1,188.3z"/>
				<path class="st26" d="M308,185.9c-1.8-0.9-2.5-1.1-3-1.3c-2.3-0.8-2.9-2.1-3.1-2.9c-0.3-0.6-0.2-1-0.5-1.5
					c-0.2-0.4-0.3-1-0.4-0.1c-0.1,0.4,0.1,0.8-0.4,1.3c-0.4,0.3-0.5,0.5-1.4,0.6c-0.1,0-0.2,0-0.1,0c0.1,0.3-0.2,1.5,1.5,2.8
					c2.2,1.7,3,2.8,3.5,3.2c0.1,0.1,0.2,0.1,0.3,0.2c0.8,0.3,1.1,0.3,1.4,0.2c0.3-0.1,2.1-0.6,2.3-2.1
					C308.2,186.1,308.1,185.9,308,185.9z"/>
				<path class="st26" d="M313.3,183.2c0.2,0.1-0.7,2.9-2.9,2.8c-1.1-0.1-1.5-0.5-2.4-0.9c-1.5-0.8-2.9-1.2-3.5-1.5
					c-0.9-0.4-1.6-1-1.8-1.7c-0.1-0.4-0.5-1.1-0.1-1.1c0.4,0,0.7,0.1,1.3-0.4c0.8-0.6,0.5-1.4,0.9-1c0.4,0.4,0.4,0.4,0.7,0.9
					c1.2,2.1,6.3,5.9,7.4,3C313,183.1,313.2,183,313.3,183.2z"/>
				<path class="st26" d="M311.3,180c0.3,0.1,0.5,0.5,0.7,0.6c0.3,0.3,1.5,1.1,0.5,1.6c-0.9,0.5-2.4-0.9-2.9-1.4
					c-0.2-0.2-0.2-0.4-0.1-0.7C309.6,179.9,310,179.4,311.3,180z"/>
				<path class="st26" d="M322.9,179.3c-1.4-0.6-4.3-2.8-6.2-3.2c-1.9-1.3-5.7-2.5-6.8-3.1c-1-0.5-3.2-1.7-4.9-2.2
					c0.4,0.4,1.5,2.3,3.7,4.1c0.8,0.6,1.3,1.3,1.6,2.6c1.7,1.1,4.2,2.4,4.4,2.2c0.1-0.1,0.2-0.2,0.5,0c0.3,0.2,0.1,0.2,0.6,0.5
					c2.8,1.3,4.3,1.9,4.3,1.9c0.6,0.2,0.5-0.1,0.8,0c0.2,0,0,0.2,0.6,0.5c0.3,0.2,1.2,0.7,3.7,1.8c2.2,1,4.2-2.1,0.5-3.9
					C323.4,179.3,323.3,179.5,322.9,179.3z"/>
			</g>
		</g>
	</g>
</g>
<g>
	<g>
		<line class="st25" x1="334.9" y1="300.1" x2="300.1" y2="324.1"/>
		<g>
			<g>
				<path d="M307.9,333.4c-1.3,0.8-3.2,2.1-5.8,4c-1.2,0.9-1.9,0.6-3.8-1.3c-0.8-0.8-1.2,0.2-2.5,0.6c-1.2,0.3-2.9-1.9-2.9-1.9
					c-0.4-0.5-0.6-0.3-0.8-0.1c-2.6,4.1-8.2,4.4-8,4.9c0.6,2.3-1.4,3.5-1.9,3.2c0.6,0.8-0.2,2.4-0.7,2.5c-1.9,0.2-2.3-0.3-3.6,0
					c-2.4,0.5-2.5-0.7-4.4,0.4c-1.3,0.8-1.9,0.9-2.4,0.8c-2.2-0.4-2.2-2.9-1.8-4c-1.2-1.1-0.4-4.1-0.7-5.5c-0.6,0.4-1.6,0.9-3.3,1.4
					c-0.9,0.3-0.5,0.5-1.8,1.2c-1.8,1-2.6,1.3-3.3,1.4c-0.4,0.1-2.1,1.3-3.1,1.6c-3,1.5-4.3-1.3-4.4-1.6c0-0.1,0-0.1,0.5-0.5
					c0.7-0.4,1.7-1.6,2.9-2.2c0.4-0.2,0.9-0.8,2-1.4c1.1-1,2.2-1.3,3.2-2.8c0.2-0.2,0.3,0,0.7-0.3c0.2-0.2,0.1-0.4,0.9-0.8
					c0.9-0.5,1.9-1.3,2.9-2c1-0.7,1.7-1.5,4-3.4c1-0.8,1.4-1.8,2.4-1.9c1.5-0.2,6.6-1.2,12.3-2c0.1,0,0.6-0.1,0.5-0.8
					c-0.1-1.2,0.3-1.1,2-2.2c1.2-0.9-0.4-1.2,1-2c2-1.3,2.9-1.7,5.8-3.8c1.2-0.8,1.5-1.1,2.1-0.3l12.3,17.9
					C308.2,332.8,308.2,333.1,307.9,333.4z"/>
				<path class="st26" d="M253.5,341.1c0.5,0.8,1.8-0.4,2.3-0.9c0.3-0.3,0.2-1-0.2-0.9l-2,1.7C253.5,341,253.4,341.1,253.5,341.1z"
					/>
				<path class="st26" d="M271.4,342.3c0.9-0.5,1.1,0,1.5-0.4c0.5-0.5-0.2-0.4,1.9-1.7c0.6-0.4,0.9-0.7,1.5-0.7
					c0.1-0.3,0.4-0.8,0.9-0.8c0.6-0.7,0.3-0.6,1.8-1.1c2-0.8,1.8-1.7,2.3-2.6c0.1-0.2,0.2-0.4,0.7-0.6c3.4-1.8,2-0.8,6.2-4.1
					c1.3-1.3,1.3-2.5-0.1-4.5c-1.7-2.2-2-1.6-3.6-1.2c-6.7,1.2-11.5,1.6-12.8,2.7c-3.8,2.7-2.6,2.9-7.7,6.2c-1.7,0.9-1.1,1.7-1.8,2
					c-0.6,0.1-0.4-0.4-1.9,0.8c-2.9,2.4-3.9,2.3-3.9,3c0.1,0.9,0.4,1.3-1.8,2.5c-0.2,0.1-0.2,0.1-0.3,0.2c-0.3,0.1-0.2,0.3,0.2,0.3
					c0.3,0,2.5-0.3,4.2-1.9c1-0.9,0.7-0.1,2.5-1.4c0.8-0.6,1.3-0.9,1.5-1.2c1-0.2,2.6-1.3,3-1.7c0.5-0.6,0.7-1,1.4-1
					c0.8-0.1,2.2-0.5,3.9-1.9c1.9-1.7,1.5-2,1.8-2c0.7,0,0.2,1.4,1.8,1.5c0.8,0,0.3-2,0.8-2.3c0.3-0.2,0.6,0.1,0.7,0.5
					c0,0.2,0.1,1.6,0.8,1.6c1.3,0,1.5-2.9,3.2-2.9c0.4,0,0.3,0.5,0,0.7c-0.6,0.3-1.2,1.5-1.4,2.1c-0.2,0.8-1.2,2.6-1.6,3.2
					c-1.4,2.1-2.4,2-2.5,2.7c0,0.6-1,0.4-1.8,0.8c-1.4,0.7-3.7,3.8-3,4.3c0.3,0.1,0.4,0,0.7-0.2C270.9,342.6,271,342.5,271.4,342.3z
					"/>
				<path class="st26" d="M273.3,343.4c-0.7-0.4-0.8-0.5-1.6-0.2c-0.6,0.3-1.9,1.8-1.2,2.3c0.3,0.1,1-0.3,1.5-0.5
					C272.5,344.8,274,344,273.3,343.4z"/>
				<path class="st26" d="M296.4,335.3c-0.7,0.4-1,0.1-1.4-0.3c-0.6-0.5-1.8-3.3-3.9-6.4c-2.1-3.2-2.8-4-4.1-5.6
					c-0.3-0.4-1-0.7-0.5-1.1c1.8-1.4,2.3-1.9,3.6-0.7c1.5,1.5,6.1,8.1,8.1,11.9C298.2,333.5,299,333.8,296.4,335.3z"/>
			</g>
		</g>
	</g>
</g>
<text transform="matrix(1 0 0 1 173.441 289.59)" class="st27 st28">через несколько итераций</text>
<text transform="matrix(0.9611 0 0 1 229.3413 131.1431)" class="st27 st29">начальная расстановка точек</text>
</svg>
