<svg xmlns="http://www.w3.org/2000/svg" width="48" height="48"><path d="M16.534 29.396l-3.859 6.684 3.906.235 2.156 3.265 4.66-7.438-.1-.162a11.943 11.943 0 0 1-6.763-2.584zm-.77-.668A11.966 11.966 0 0 1 12 20c0-6.627 5.373-12 12-12s12 5.373 12 12c0 3.446-1.452 6.552-3.778 8.74l4.758 8.241-5.022.302-2.773 4.198-5.195-8.384-5.196 8.384-2.772-4.198L11 36.98l4.765-8.253zm8.918 3.253l-.1.161 4.66 7.438 2.157-3.265 3.906-.235-3.853-6.673a11.943 11.943 0 0 1-6.77 2.574zM24 31c6.075 0 11-4.925 11-11S30.075 9 24 9s-11 4.925-11 11 4.925 11 11 11z"/></svg>